<mxfile host="app.diagrams.net" modified="2021-01-09T05:03:20.195Z" agent="5.0 (Windows NT 10.0; Win64; x64) AppleWebKit/537.36 (KHTML, like Gecko) Chrome/87.0.4280.88 Safari/537.36" etag="BJg_NVRR0QJaf3u-Ud6G" version="14.1.8" type="github">
  <diagram id="-AheDSEaFDKDYglEKBFp" name="Page-1">
    <mxGraphModel dx="1022" dy="1161" grid="1" gridSize="10" guides="1" tooltips="1" connect="1" arrows="1" fold="1" page="1" pageScale="1" pageWidth="850" pageHeight="1100" math="0" shadow="0">
      <root>
        <mxCell id="0" />
        <mxCell id="1" parent="0" />
        <mxCell id="GZSQh7MX8YAbi8pIr0m2-1" value="" style="whiteSpace=wrap;html=1;aspect=fixed;" parent="1" vertex="1">
          <mxGeometry x="100" y="30" width="390" height="390" as="geometry" />
        </mxCell>
        <mxCell id="GZSQh7MX8YAbi8pIr0m2-2" value="MAP" style="whiteSpace=wrap;html=1;aspect=fixed;" parent="1" vertex="1">
          <mxGeometry x="160" y="110" width="260" height="260" as="geometry" />
        </mxCell>
        <mxCell id="GZSQh7MX8YAbi8pIr0m2-3" value="SITE NAME" style="rounded=1;whiteSpace=wrap;html=1;" parent="1" vertex="1">
          <mxGeometry x="160" y="50" width="260" height="40" as="geometry" />
        </mxCell>
        <mxCell id="GZSQh7MX8YAbi8pIr0m2-4" value="" style="whiteSpace=wrap;html=1;aspect=fixed;" parent="1" vertex="1">
          <mxGeometry x="95" y="460" width="390" height="390" as="geometry" />
        </mxCell>
        <mxCell id="GZSQh7MX8YAbi8pIr0m2-5" value="" style="whiteSpace=wrap;html=1;aspect=fixed;" parent="1" vertex="1">
          <mxGeometry x="150" y="570" width="260" height="260" as="geometry" />
        </mxCell>
        <mxCell id="GZSQh7MX8YAbi8pIr0m2-6" value="USER NAME" style="rounded=1;whiteSpace=wrap;html=1;" parent="1" vertex="1">
          <mxGeometry x="160" y="470" width="100" height="30" as="geometry" />
        </mxCell>
        <mxCell id="GZSQh7MX8YAbi8pIr0m2-8" value="dropdown" style="rounded=1;whiteSpace=wrap;html=1;" parent="1" vertex="1">
          <mxGeometry x="330" y="550" width="80" height="10" as="geometry" />
        </mxCell>
        <mxCell id="GZSQh7MX8YAbi8pIr0m2-10" value="&lt;ol&gt;&lt;li&gt;Value 1&lt;/li&gt;&lt;li&gt;Value 2&lt;/li&gt;&lt;li&gt;Value 3&lt;/li&gt;&lt;/ol&gt;" style="text;strokeColor=none;fillColor=none;html=1;whiteSpace=wrap;verticalAlign=middle;overflow=hidden;" parent="1" vertex="1">
          <mxGeometry x="160" y="590" width="100" height="80" as="geometry" />
        </mxCell>
        <mxCell id="GZSQh7MX8YAbi8pIr0m2-12" value="" style="whiteSpace=wrap;html=1;aspect=fixed;" parent="1" vertex="1">
          <mxGeometry x="95" y="900" width="390" height="390" as="geometry" />
        </mxCell>
        <mxCell id="GZSQh7MX8YAbi8pIr0m2-13" value="" style="whiteSpace=wrap;html=1;aspect=fixed;" parent="1" vertex="1">
          <mxGeometry x="155" y="990" width="260" height="260" as="geometry" />
        </mxCell>
        <mxCell id="GZSQh7MX8YAbi8pIr0m2-14" value="MAP NAME" style="rounded=1;whiteSpace=wrap;html=1;" parent="1" vertex="1">
          <mxGeometry x="155" y="920" width="135" height="30" as="geometry" />
        </mxCell>
        <mxCell id="GZSQh7MX8YAbi8pIr0m2-15" value="" style="rounded=1;whiteSpace=wrap;html=1;strokeWidth=2;fillWeight=4;hachureGap=8;hachureAngle=45;fillColor=#1ba1e2;sketch=1;" parent="1" vertex="1">
          <mxGeometry x="180" y="1015" width="220" height="210" as="geometry" />
        </mxCell>
        <mxCell id="GZSQh7MX8YAbi8pIr0m2-17" value="USER INFO" style="shape=hexagon;perimeter=hexagonPerimeter2;whiteSpace=wrap;html=1;fixedSize=1;" parent="1" vertex="1">
          <mxGeometry x="165" y="500" width="90" height="50" as="geometry" />
        </mxCell>
        <mxCell id="GZSQh7MX8YAbi8pIr0m2-20" value="Search Bar" style="rounded=1;whiteSpace=wrap;html=1;" parent="1" vertex="1">
          <mxGeometry x="155" y="970" width="100" height="20" as="geometry" />
        </mxCell>
        <mxCell id="GZSQh7MX8YAbi8pIr0m2-24" value="" style="shape=offPageConnector;whiteSpace=wrap;html=1;fillColor=#FF3333;" parent="1" vertex="1">
          <mxGeometry x="217.5" y="1060" width="10" height="20" as="geometry" />
        </mxCell>
        <mxCell id="GZSQh7MX8YAbi8pIr0m2-25" value="" style="shape=offPageConnector;whiteSpace=wrap;html=1;fillColor=#FF3333;" parent="1" vertex="1">
          <mxGeometry x="300" y="1080" width="10" height="20" as="geometry" />
        </mxCell>
        <mxCell id="GZSQh7MX8YAbi8pIr0m2-26" value="" style="shape=offPageConnector;whiteSpace=wrap;html=1;fillColor=#FF3333;" parent="1" vertex="1">
          <mxGeometry x="235" y="1140" width="10" height="20" as="geometry" />
        </mxCell>
        <mxCell id="GZSQh7MX8YAbi8pIr0m2-27" value="" style="shape=offPageConnector;whiteSpace=wrap;html=1;fillColor=#FF3333;" parent="1" vertex="1">
          <mxGeometry x="330" y="1160" width="10" height="20" as="geometry" />
        </mxCell>
        <mxCell id="GZSQh7MX8YAbi8pIr0m2-28" value="" style="shape=plus;html=1;outlineConnect=0;fillColor=#FF3333;" parent="1" vertex="1">
          <mxGeometry x="401" y="1236" width="14" height="14" as="geometry" />
        </mxCell>
        <mxCell id="GZSQh7MX8YAbi8pIr0m2-30" value="" style="whiteSpace=wrap;html=1;aspect=fixed;" parent="1" vertex="1">
          <mxGeometry x="90" y="1350" width="390" height="390" as="geometry" />
        </mxCell>
        <mxCell id="GZSQh7MX8YAbi8pIr0m2-31" value="" style="whiteSpace=wrap;html=1;aspect=fixed;" parent="1" vertex="1">
          <mxGeometry x="150" y="1440" width="260" height="260" as="geometry" />
        </mxCell>
        <mxCell id="GZSQh7MX8YAbi8pIr0m2-32" value="MAP NAME" style="rounded=1;whiteSpace=wrap;html=1;" parent="1" vertex="1">
          <mxGeometry x="150" y="1370" width="135" height="30" as="geometry" />
        </mxCell>
        <mxCell id="GZSQh7MX8YAbi8pIr0m2-33" value="" style="rounded=1;whiteSpace=wrap;html=1;strokeWidth=2;fillWeight=4;hachureGap=8;hachureAngle=45;fillColor=#1ba1e2;sketch=1;" parent="1" vertex="1">
          <mxGeometry x="175" y="1465" width="220" height="210" as="geometry" />
        </mxCell>
        <mxCell id="GZSQh7MX8YAbi8pIr0m2-34" value="Search Bar" style="rounded=1;whiteSpace=wrap;html=1;" parent="1" vertex="1">
          <mxGeometry x="150" y="1420" width="100" height="20" as="geometry" />
        </mxCell>
        <mxCell id="GZSQh7MX8YAbi8pIr0m2-35" value="" style="shape=offPageConnector;whiteSpace=wrap;html=1;fillColor=#FF3333;" parent="1" vertex="1">
          <mxGeometry x="212.5" y="1510" width="10" height="20" as="geometry" />
        </mxCell>
        <mxCell id="GZSQh7MX8YAbi8pIr0m2-36" value="" style="shape=offPageConnector;whiteSpace=wrap;html=1;fillColor=#FF3333;" parent="1" vertex="1">
          <mxGeometry x="295" y="1530" width="10" height="20" as="geometry" />
        </mxCell>
        <mxCell id="GZSQh7MX8YAbi8pIr0m2-37" value="" style="shape=offPageConnector;whiteSpace=wrap;html=1;fillColor=#FF3333;" parent="1" vertex="1">
          <mxGeometry x="230" y="1590" width="10" height="20" as="geometry" />
        </mxCell>
        <mxCell id="GZSQh7MX8YAbi8pIr0m2-38" value="" style="shape=offPageConnector;whiteSpace=wrap;html=1;fillColor=#FF3333;" parent="1" vertex="1">
          <mxGeometry x="325" y="1610" width="10" height="20" as="geometry" />
        </mxCell>
        <mxCell id="GZSQh7MX8YAbi8pIr0m2-39" value="" style="shape=plus;html=1;outlineConnect=0;fillColor=#FF3333;" parent="1" vertex="1">
          <mxGeometry x="396" y="1686" width="14" height="14" as="geometry" />
        </mxCell>
        <mxCell id="GZSQh7MX8YAbi8pIr0m2-40" value="Create new map" style="rounded=1;whiteSpace=wrap;html=1;fillColor=#FFFFFF;" parent="1" vertex="1">
          <mxGeometry x="330" y="490" width="75" height="30" as="geometry" />
        </mxCell>
        <mxCell id="GZSQh7MX8YAbi8pIr0m2-41" value="Point Info&lt;br&gt;Title&lt;br&gt;Description&lt;br&gt;Image" style="rounded=1;whiteSpace=wrap;html=1;fillColor=#FFFFFF;" parent="1" vertex="1">
          <mxGeometry x="305" y="1410" width="120" height="120" as="geometry" />
        </mxCell>
        <mxCell id="QBqvZel56sylFGaKKq-J-1" value="" style="shape=hexagon;perimeter=hexagonPerimeter2;whiteSpace=wrap;html=1;fixedSize=1;" vertex="1" parent="1">
          <mxGeometry x="520" y="500" width="300" height="280" as="geometry" />
        </mxCell>
        <mxCell id="QBqvZel56sylFGaKKq-J-2" value="User Info" style="text;html=1;strokeColor=none;fillColor=none;align=center;verticalAlign=middle;whiteSpace=wrap;rounded=0;" vertex="1" parent="1">
          <mxGeometry x="635" y="515" width="70" height="20" as="geometry" />
        </mxCell>
        <mxCell id="QBqvZel56sylFGaKKq-J-3" value="Name" style="text;html=1;strokeColor=none;fillColor=none;align=center;verticalAlign=middle;whiteSpace=wrap;rounded=0;" vertex="1" parent="1">
          <mxGeometry x="550" y="550" width="40" height="20" as="geometry" />
        </mxCell>
        <mxCell id="QBqvZel56sylFGaKKq-J-4" value="Count of Map Contributed" style="text;html=1;strokeColor=none;fillColor=none;align=center;verticalAlign=middle;whiteSpace=wrap;rounded=0;" vertex="1" parent="1">
          <mxGeometry x="550" y="580" width="150" height="20" as="geometry" />
        </mxCell>
        <mxCell id="QBqvZel56sylFGaKKq-J-5" value="Count of Map Created" style="text;html=1;strokeColor=none;fillColor=none;align=center;verticalAlign=middle;whiteSpace=wrap;rounded=0;" vertex="1" parent="1">
          <mxGeometry x="550" y="610" width="150" height="20" as="geometry" />
        </mxCell>
        <mxCell id="QBqvZel56sylFGaKKq-J-6" value="Super user?" style="text;html=1;strokeColor=none;fillColor=none;align=center;verticalAlign=middle;whiteSpace=wrap;rounded=0;" vertex="1" parent="1">
          <mxGeometry x="710" y="600" width="60" height="20" as="geometry" />
        </mxCell>
        <mxCell id="QBqvZel56sylFGaKKq-J-7" value="Login" style="rounded=1;whiteSpace=wrap;html=1;" vertex="1" parent="1">
          <mxGeometry x="360" y="60" width="65" height="40" as="geometry" />
        </mxCell>
      </root>
    </mxGraphModel>
  </diagram>
</mxfile>
